<svg id="visual" viewBox="0 0 960 300" width="960" height="300" xmlns="http://www.w3.org/2000/svg" xmlns:xlink="http://www.w3.org/1999/xlink" version="1.1"><rect x="0" y="0" width="960" height="300" fill="#87238a"></rect><path d="M0 203L20 202.7C40 202.3 80 201.7 120 210.2C160 218.7 200 236.3 240 245C280 253.7 320 253.3 360 250.2C400 247 440 241 480 232.2C520 223.3 560 211.7 600 206.8C640 202 680 204 720 206.5C760 209 800 212 840 211.8C880 211.7 920 208.3 940 206.7L960 205L960 301L940 301C920 301 880 301 840 301C800 301 760 301 720 301C680 301 640 301 600 301C560 301 520 301 480 301C440 301 400 301 360 301C320 301 280 301 240 301C200 301 160 301 120 301C80 301 40 301 20 301L0 301Z" fill="#ceaaaa" stroke-linecap="round" stroke-linejoin="miter"></path></svg>